<mxfile host="65bd71144e" modified="2021-01-05T18:07:47.661Z" agent="5.0 (Macintosh; Intel Mac OS X 10_15_7) AppleWebKit/537.36 (KHTML, like Gecko) Code/1.52.1 Chrome/83.0.4103.122 Electron/9.3.5 Safari/537.36" etag="L-8qWX9Lo3Eeny1_q4fM" version="13.10.0" type="embed" pages="5">
    <diagram id="pP3zA8WMNNnWw6ckbHlF" name="auth API">
        <mxGraphModel dx="479" dy="548" grid="1" gridSize="10" guides="1" tooltips="1" connect="1" arrows="1" fold="1" page="1" pageScale="1" pageWidth="850" pageHeight="1100" math="0" shadow="0">
            <root>
                <mxCell id="0"/>
                <mxCell id="1" parent="0"/>
                <mxCell id="2" value="auth" style="rounded=0;whiteSpace=wrap;html=1;fontSize=20;align=center;fillColor=#dae8fc;strokeColor=#6c8ebf;fontStyle=0;fontColor=#000000;" parent="1" vertex="1">
                    <mxGeometry x="490" y="180" width="660" height="30" as="geometry"/>
                </mxCell>
                <mxCell id="3" value="POST" style="rounded=0;whiteSpace=wrap;html=1;fontSize=17;align=center;" parent="1" vertex="1">
                    <mxGeometry x="660" y="237" width="110" height="50" as="geometry"/>
                </mxCell>
                <mxCell id="4" value="/api/users/signup" style="rounded=0;whiteSpace=wrap;html=1;fontSize=15;align=center;" parent="1" vertex="1">
                    <mxGeometry x="490" y="237" width="160" height="50" as="geometry"/>
                </mxCell>
                <mxCell id="5" value="{ email: string, password: string }" style="rounded=0;whiteSpace=wrap;html=1;fontSize=11;align=center;" parent="1" vertex="1">
                    <mxGeometry x="780" y="237" width="170" height="50" as="geometry"/>
                </mxCell>
                <mxCell id="6" value="Sign up for an account" style="rounded=0;whiteSpace=wrap;html=1;fontSize=17;align=center;" parent="1" vertex="1">
                    <mxGeometry x="960" y="237" width="190" height="50" as="geometry"/>
                </mxCell>
                <mxCell id="7" value="Method" style="rounded=0;whiteSpace=wrap;html=1;fontSize=14;align=center;fillColor=#d5e8d4;strokeColor=#82b366;fontColor=#000000;" parent="1" vertex="1">
                    <mxGeometry x="660" y="210" width="110" height="27" as="geometry"/>
                </mxCell>
                <mxCell id="8" value="Route" style="rounded=0;whiteSpace=wrap;html=1;fontSize=14;align=center;fillColor=#d5e8d4;strokeColor=#82b366;fontColor=#000000;" parent="1" vertex="1">
                    <mxGeometry x="490" y="210" width="160" height="27" as="geometry"/>
                </mxCell>
                <mxCell id="9" value="Body" style="rounded=0;whiteSpace=wrap;html=1;fontSize=14;align=center;fillColor=#d5e8d4;strokeColor=#82b366;fontColor=#000000;" parent="1" vertex="1">
                    <mxGeometry x="780" y="210" width="170" height="27" as="geometry"/>
                </mxCell>
                <mxCell id="10" value="Purpose" style="rounded=0;whiteSpace=wrap;html=1;fontSize=14;align=center;fillColor=#d5e8d4;strokeColor=#82b366;fontColor=#000000;" parent="1" vertex="1">
                    <mxGeometry x="960" y="210" width="190" height="27" as="geometry"/>
                </mxCell>
                <mxCell id="11" value="POST" style="rounded=0;whiteSpace=wrap;html=1;fontSize=17;align=center;" parent="1" vertex="1">
                    <mxGeometry x="660" y="287" width="110" height="50" as="geometry"/>
                </mxCell>
                <mxCell id="12" value="/api/users/signin" style="rounded=0;whiteSpace=wrap;html=1;fontSize=15;align=center;" parent="1" vertex="1">
                    <mxGeometry x="490" y="287" width="160" height="50" as="geometry"/>
                </mxCell>
                <mxCell id="13" value="{ email: string, password: string }" style="rounded=0;whiteSpace=wrap;html=1;fontSize=11;align=center;" parent="1" vertex="1">
                    <mxGeometry x="780" y="287" width="170" height="50" as="geometry"/>
                </mxCell>
                <mxCell id="14" value="Sign in to an existing account" style="rounded=0;whiteSpace=wrap;html=1;fontSize=17;align=center;" parent="1" vertex="1">
                    <mxGeometry x="960" y="287" width="190" height="50" as="geometry"/>
                </mxCell>
                <mxCell id="15" value="POST" style="rounded=0;whiteSpace=wrap;html=1;fontSize=17;align=center;" parent="1" vertex="1">
                    <mxGeometry x="660" y="337" width="110" height="50" as="geometry"/>
                </mxCell>
                <mxCell id="16" value="/api/users/signout" style="rounded=0;whiteSpace=wrap;html=1;fontSize=15;align=center;" parent="1" vertex="1">
                    <mxGeometry x="490" y="337" width="160" height="50" as="geometry"/>
                </mxCell>
                <mxCell id="17" value="{}" style="rounded=0;whiteSpace=wrap;html=1;fontSize=11;align=center;" parent="1" vertex="1">
                    <mxGeometry x="780" y="337" width="170" height="50" as="geometry"/>
                </mxCell>
                <mxCell id="18" value="Sign out" style="rounded=0;whiteSpace=wrap;html=1;fontSize=17;align=center;" parent="1" vertex="1">
                    <mxGeometry x="960" y="337" width="190" height="50" as="geometry"/>
                </mxCell>
                <mxCell id="19" value="GET" style="rounded=0;whiteSpace=wrap;html=1;fontSize=17;align=center;" parent="1" vertex="1">
                    <mxGeometry x="660" y="387" width="110" height="50" as="geometry"/>
                </mxCell>
                <mxCell id="20" value="/api/users/currentuser" style="rounded=0;whiteSpace=wrap;html=1;fontSize=15;align=center;" parent="1" vertex="1">
                    <mxGeometry x="490" y="387" width="160" height="50" as="geometry"/>
                </mxCell>
                <mxCell id="21" value="-" style="rounded=0;whiteSpace=wrap;html=1;fontSize=11;align=center;" parent="1" vertex="1">
                    <mxGeometry x="780" y="387" width="170" height="50" as="geometry"/>
                </mxCell>
                <mxCell id="22" value="Return info about the user" style="rounded=0;whiteSpace=wrap;html=1;fontSize=17;align=center;" parent="1" vertex="1">
                    <mxGeometry x="960" y="387" width="190" height="50" as="geometry"/>
                </mxCell>
            </root>
        </mxGraphModel>
    </diagram>
    <diagram id="wknrve7_kJzuVYv7DMLA" name="auth requirements">
        <mxGraphModel dx="479" dy="548" grid="1" gridSize="10" guides="1" tooltips="1" connect="1" arrows="1" fold="1" page="1" pageScale="1" pageWidth="850" pageHeight="1100" math="0" shadow="0">
            <root>
                <mxCell id="8iwCmQECTmXBjqklKB3Y-0"/>
                <mxCell id="8iwCmQECTmXBjqklKB3Y-1" parent="8iwCmQECTmXBjqklKB3Y-0"/>
                <mxCell id="8iwCmQECTmXBjqklKB3Y-2" style="edgeStyle=orthogonalEdgeStyle;rounded=0;orthogonalLoop=1;jettySize=auto;html=1;exitX=1;exitY=0.5;exitDx=0;exitDy=0;fontSize=29;" parent="8iwCmQECTmXBjqklKB3Y-1" source="8iwCmQECTmXBjqklKB3Y-3" target="8iwCmQECTmXBjqklKB3Y-13" edge="1">
                    <mxGeometry relative="1" as="geometry"/>
                </mxCell>
                <mxCell id="8iwCmQECTmXBjqklKB3Y-3" value="Must be able to tell us &lt;span style=&quot;font-size: 17px;&quot;&gt;details about a user&lt;/span&gt;" style="rounded=0;whiteSpace=wrap;html=1;fontSize=17;align=center;fillColor=#f8cecc;strokeColor=#b85450;fontStyle=0;fontColor=#000000;" parent="8iwCmQECTmXBjqklKB3Y-1" vertex="1">
                    <mxGeometry x="550" y="250" width="490" height="50" as="geometry"/>
                </mxCell>
                <mxCell id="8iwCmQECTmXBjqklKB3Y-4" value="Requirements for Our Auth Mechanism" style="text;html=1;strokeColor=none;fillColor=none;align=center;verticalAlign=middle;whiteSpace=wrap;rounded=0;fontSize=21;fontStyle=1" parent="8iwCmQECTmXBjqklKB3Y-1" vertex="1">
                    <mxGeometry x="682.5" y="210" width="225" height="20" as="geometry"/>
                </mxCell>
                <mxCell id="8iwCmQECTmXBjqklKB3Y-5" style="edgeStyle=orthogonalEdgeStyle;rounded=0;orthogonalLoop=1;jettySize=auto;html=1;exitX=1;exitY=0.5;exitDx=0;exitDy=0;fontSize=29;" parent="8iwCmQECTmXBjqklKB3Y-1" source="8iwCmQECTmXBjqklKB3Y-6" target="8iwCmQECTmXBjqklKB3Y-13" edge="1">
                    <mxGeometry relative="1" as="geometry"/>
                </mxCell>
                <mxCell id="8iwCmQECTmXBjqklKB3Y-6" value="Must be able to handle authorization info" style="rounded=0;whiteSpace=wrap;html=1;fontSize=17;align=center;fillColor=#f8cecc;strokeColor=#b85450;fontStyle=0;fontColor=#000000;" parent="8iwCmQECTmXBjqklKB3Y-1" vertex="1">
                    <mxGeometry x="550" y="310" width="490" height="50" as="geometry"/>
                </mxCell>
                <mxCell id="8iwCmQECTmXBjqklKB3Y-7" style="edgeStyle=orthogonalEdgeStyle;rounded=0;orthogonalLoop=1;jettySize=auto;html=1;exitX=1;exitY=0.5;exitDx=0;exitDy=0;fontSize=29;" parent="8iwCmQECTmXBjqklKB3Y-1" source="8iwCmQECTmXBjqklKB3Y-8" target="8iwCmQECTmXBjqklKB3Y-13" edge="1">
                    <mxGeometry relative="1" as="geometry"/>
                </mxCell>
                <mxCell id="8iwCmQECTmXBjqklKB3Y-8" value="Must have a built-in, tamper-resistant way to expire or invalidate itself" style="rounded=0;whiteSpace=wrap;html=1;fontSize=17;align=center;fillColor=#f8cecc;strokeColor=#b85450;fontStyle=0;fontColor=#000000;" parent="8iwCmQECTmXBjqklKB3Y-1" vertex="1">
                    <mxGeometry x="550" y="370" width="490" height="50" as="geometry"/>
                </mxCell>
                <mxCell id="8iwCmQECTmXBjqklKB3Y-9" style="edgeStyle=orthogonalEdgeStyle;rounded=0;orthogonalLoop=1;jettySize=auto;html=1;exitX=1;exitY=0.5;exitDx=0;exitDy=0;entryX=0;entryY=0.5;entryDx=0;entryDy=0;fontSize=29;" parent="8iwCmQECTmXBjqklKB3Y-1" source="8iwCmQECTmXBjqklKB3Y-10" target="8iwCmQECTmXBjqklKB3Y-13" edge="1">
                    <mxGeometry relative="1" as="geometry"/>
                </mxCell>
                <mxCell id="8iwCmQECTmXBjqklKB3Y-10" value="Must be easily understood between different languages" style="rounded=0;whiteSpace=wrap;html=1;fontSize=17;align=center;fillColor=#f8cecc;strokeColor=#b85450;fontStyle=0;fontColor=#000000;" parent="8iwCmQECTmXBjqklKB3Y-1" vertex="1">
                    <mxGeometry x="550" y="430" width="490" height="50" as="geometry"/>
                </mxCell>
                <mxCell id="8iwCmQECTmXBjqklKB3Y-11" style="edgeStyle=orthogonalEdgeStyle;rounded=0;orthogonalLoop=1;jettySize=auto;html=1;exitX=1;exitY=0.5;exitDx=0;exitDy=0;fontSize=29;" parent="8iwCmQECTmXBjqklKB3Y-1" source="8iwCmQECTmXBjqklKB3Y-12" target="8iwCmQECTmXBjqklKB3Y-13" edge="1">
                    <mxGeometry relative="1" as="geometry"/>
                </mxCell>
                <mxCell id="8iwCmQECTmXBjqklKB3Y-12" value="Must not require some kind of backing data store on the server" style="rounded=0;whiteSpace=wrap;html=1;fontSize=17;align=center;fillColor=#f8cecc;strokeColor=#b85450;fontStyle=0;fontColor=#000000;" parent="8iwCmQECTmXBjqklKB3Y-1" vertex="1">
                    <mxGeometry x="550" y="490" width="490" height="50" as="geometry"/>
                </mxCell>
                <mxCell id="8iwCmQECTmXBjqklKB3Y-13" value="JWT!" style="rounded=0;whiteSpace=wrap;html=1;fontSize=29;align=center;fontStyle=0;fillColor=#dae8fc;strokeColor=#6c8ebf;fontColor=#000000;" parent="8iwCmQECTmXBjqklKB3Y-1" vertex="1">
                    <mxGeometry x="1110" y="250" width="120" height="290" as="geometry"/>
                </mxCell>
            </root>
        </mxGraphModel>
    </diagram>
    <diagram id="s7Son8mbhETvgVvLeWUq" name="jwt &amp; ssr">
        <mxGraphModel dx="479" dy="548" grid="1" gridSize="10" guides="1" tooltips="1" connect="1" arrows="1" fold="1" page="1" pageScale="1" pageWidth="850" pageHeight="1100" math="0" shadow="0">
            <root>
                <mxCell id="JNkHGROEs0F1F4ubXFPu-0"/>
                <mxCell id="JNkHGROEs0F1F4ubXFPu-1" parent="JNkHGROEs0F1F4ubXFPu-0"/>
                <mxCell id="JNkHGROEs0F1F4ubXFPu-2" value="Client" style="rounded=0;whiteSpace=wrap;html=1;fillColor=#f5f5f5;strokeColor=#666666;fontStyle=1;fontSize=19;fontColor=#000000;" parent="JNkHGROEs0F1F4ubXFPu-1" vertex="1">
                    <mxGeometry x="870" y="260" width="120" height="35" as="geometry"/>
                </mxCell>
                <mxCell id="JNkHGROEs0F1F4ubXFPu-3" style="edgeStyle=orthogonalEdgeStyle;rounded=0;orthogonalLoop=1;jettySize=auto;html=1;exitX=1;exitY=0.5;exitDx=0;exitDy=0;strokeWidth=1;fontSize=19;fontColor=#FFFFFF;strokeColor=#FFFFFF;" parent="JNkHGROEs0F1F4ubXFPu-1" source="JNkHGROEs0F1F4ubXFPu-5" target="JNkHGROEs0F1F4ubXFPu-17" edge="1">
                    <mxGeometry relative="1" as="geometry"/>
                </mxCell>
                <mxCell id="JNkHGROEs0F1F4ubXFPu-4" style="edgeStyle=orthogonalEdgeStyle;rounded=0;orthogonalLoop=1;jettySize=auto;html=1;exitX=1;exitY=0.5;exitDx=0;exitDy=0;entryX=0;entryY=0.417;entryDx=0;entryDy=0;entryPerimeter=0;strokeWidth=1;fontSize=19;fontColor=#FFFFFF;strokeColor=#FFFFFF;" parent="JNkHGROEs0F1F4ubXFPu-1" source="JNkHGROEs0F1F4ubXFPu-5" target="JNkHGROEs0F1F4ubXFPu-20" edge="1">
                    <mxGeometry relative="1" as="geometry"/>
                </mxCell>
                <mxCell id="JNkHGROEs0F1F4ubXFPu-5" value="" style="rounded=0;whiteSpace=wrap;html=1;fillColor=#f5f5f5;strokeColor=#666666;fontStyle=1;fontSize=19;fontColor=#000000;" parent="JNkHGROEs0F1F4ubXFPu-1" vertex="1">
                    <mxGeometry x="870" y="295" width="120" height="115" as="geometry"/>
                </mxCell>
                <mxCell id="JNkHGROEs0F1F4ubXFPu-6" value="Next JS" style="rounded=0;whiteSpace=wrap;html=1;fontSize=15;fontStyle=1;fontColor=#FFFFFF;" parent="JNkHGROEs0F1F4ubXFPu-1" vertex="1">
                    <mxGeometry x="885" y="310.26" width="90" height="90" as="geometry"/>
                </mxCell>
                <mxCell id="JNkHGROEs0F1F4ubXFPu-7" value="" style="endArrow=classic;html=1;fontSize=15;fontColor=#000000;" parent="JNkHGROEs0F1F4ubXFPu-1" edge="1">
                    <mxGeometry width="50" height="50" relative="1" as="geometry">
                        <mxPoint x="660" y="325" as="sourcePoint"/>
                        <mxPoint x="870" y="325" as="targetPoint"/>
                    </mxGeometry>
                </mxCell>
                <mxCell id="JNkHGROEs0F1F4ubXFPu-8" value="Request" style="rounded=0;whiteSpace=wrap;html=1;fontSize=15;fillColor=#dae8fc;strokeColor=#6c8ebf;fontStyle=1;fontColor=#000000;" parent="JNkHGROEs0F1F4ubXFPu-1" vertex="1">
                    <mxGeometry x="694" y="265" width="146" height="30" as="geometry"/>
                </mxCell>
                <mxCell id="JNkHGROEs0F1F4ubXFPu-9" value="" style="endArrow=classic;html=1;fontSize=15;fontColor=#000000;" parent="JNkHGROEs0F1F4ubXFPu-1" edge="1">
                    <mxGeometry width="50" height="50" relative="1" as="geometry">
                        <mxPoint x="870" y="340.26" as="sourcePoint"/>
                        <mxPoint x="660" y="340" as="targetPoint"/>
                    </mxGeometry>
                </mxCell>
                <mxCell id="JNkHGROEs0F1F4ubXFPu-10" value="Response" style="rounded=0;whiteSpace=wrap;html=1;fontSize=15;fillColor=#dae8fc;strokeColor=#6c8ebf;fontStyle=1;fontColor=#000000;" parent="JNkHGROEs0F1F4ubXFPu-1" vertex="1">
                    <mxGeometry x="694" y="340.26" width="150" height="30" as="geometry"/>
                </mxCell>
                <mxCell id="JNkHGROEs0F1F4ubXFPu-11" value="Fully rendered HTML file with content" style="rounded=0;whiteSpace=wrap;html=1;fontSize=19;fillColor=#dae8fc;strokeColor=#6c8ebf;fontStyle=1;fontColor=#000000;" parent="JNkHGROEs0F1F4ubXFPu-1" vertex="1">
                    <mxGeometry x="694" y="370.26" width="150" height="89.74" as="geometry"/>
                </mxCell>
                <mxCell id="JNkHGROEs0F1F4ubXFPu-12" value="" style="strokeWidth=1;shadow=0;dashed=0;align=center;html=1;shape=mxgraph.mockup.containers.browserWindow;rSize=0;strokeColor=#666666;strokeColor2=#008cff;strokeColor3=#c4c4c4;mainText=,;recursiveResize=0;fontSize=29;fontColor=#000000;" parent="JNkHGROEs0F1F4ubXFPu-1" vertex="1">
                    <mxGeometry x="356" y="250" width="304" height="230" as="geometry"/>
                </mxCell>
                <mxCell id="JNkHGROEs0F1F4ubXFPu-13" value="Page 1" style="strokeWidth=1;shadow=0;dashed=0;align=center;html=1;shape=mxgraph.mockup.containers.anchor;fontSize=17;fontColor=#666666;align=left;" parent="JNkHGROEs0F1F4ubXFPu-12" vertex="1">
                    <mxGeometry x="60" y="12" width="110" height="26" as="geometry"/>
                </mxCell>
                <mxCell id="JNkHGROEs0F1F4ubXFPu-14" value="ticketing.dev" style="strokeWidth=1;shadow=0;dashed=0;align=center;html=1;shape=mxgraph.mockup.containers.anchor;rSize=0;fontSize=17;fontColor=#666666;align=left;" parent="JNkHGROEs0F1F4ubXFPu-12" vertex="1">
                    <mxGeometry x="130" y="60" width="250" height="26" as="geometry"/>
                </mxCell>
                <mxCell id="JNkHGROEs0F1F4ubXFPu-15" value="&lt;span style=&quot;font-weight: normal&quot;&gt;GET ticketing.dev&lt;/span&gt;" style="rounded=0;whiteSpace=wrap;html=1;fontSize=15;fillColor=#dae8fc;strokeColor=#6c8ebf;fontStyle=1;fontColor=#000000;" parent="JNkHGROEs0F1F4ubXFPu-1" vertex="1">
                    <mxGeometry x="694" y="295" width="146" height="30" as="geometry"/>
                </mxCell>
                <mxCell id="JNkHGROEs0F1F4ubXFPu-16" value="Orders Service" style="rounded=0;whiteSpace=wrap;html=1;fillColor=#f5f5f5;strokeColor=#666666;fontStyle=1;fontSize=19;fontColor=#000000;" parent="JNkHGROEs0F1F4ubXFPu-1" vertex="1">
                    <mxGeometry x="1080" y="245" width="190" height="35" as="geometry"/>
                </mxCell>
                <mxCell id="JNkHGROEs0F1F4ubXFPu-17" value="" style="rounded=0;whiteSpace=wrap;html=1;fillColor=#f5f5f5;strokeColor=#666666;fontStyle=1;fontSize=19;fontColor=#000000;" parent="JNkHGROEs0F1F4ubXFPu-1" vertex="1">
                    <mxGeometry x="1080" y="280" width="190" height="60" as="geometry"/>
                </mxCell>
                <mxCell id="JNkHGROEs0F1F4ubXFPu-18" value="Express + express-validator" style="rounded=0;whiteSpace=wrap;html=1;fontSize=15;fontColor=#FFFFFF;" parent="JNkHGROEs0F1F4ubXFPu-1" vertex="1">
                    <mxGeometry x="1110" y="285" width="130" height="50" as="geometry"/>
                </mxCell>
                <mxCell id="JNkHGROEs0F1F4ubXFPu-19" value="Ticketing Service" style="rounded=0;whiteSpace=wrap;html=1;fillColor=#f5f5f5;strokeColor=#666666;fontStyle=1;fontSize=19;fontColor=#000000;" parent="JNkHGROEs0F1F4ubXFPu-1" vertex="1">
                    <mxGeometry x="1080" y="365" width="190" height="35" as="geometry"/>
                </mxCell>
                <mxCell id="JNkHGROEs0F1F4ubXFPu-20" value="" style="rounded=0;whiteSpace=wrap;html=1;fillColor=#f5f5f5;strokeColor=#666666;fontStyle=1;fontSize=19;fontColor=#000000;" parent="JNkHGROEs0F1F4ubXFPu-1" vertex="1">
                    <mxGeometry x="1080" y="400" width="190" height="60" as="geometry"/>
                </mxCell>
                <mxCell id="JNkHGROEs0F1F4ubXFPu-21" value="Express + express-validator" style="rounded=0;whiteSpace=wrap;html=1;fontSize=15;fontColor=#FFFFFF;" parent="JNkHGROEs0F1F4ubXFPu-1" vertex="1">
                    <mxGeometry x="1110" y="405" width="130" height="50" as="geometry"/>
                </mxCell>
                <mxCell id="JNkHGROEs0F1F4ubXFPu-22" value="" style="endArrow=none;dashed=1;html=1;fontSize=29;strokeWidth=6;strokeColor=#FF0000;fontColor=#000000;" parent="JNkHGROEs0F1F4ubXFPu-1" edge="1">
                    <mxGeometry width="50" height="50" relative="1" as="geometry">
                        <mxPoint x="620" y="240" as="sourcePoint"/>
                        <mxPoint x="1060" y="240" as="targetPoint"/>
                    </mxGeometry>
                </mxCell>
                <mxCell id="JNkHGROEs0F1F4ubXFPu-23" value="With server side rendering, we need to know auth info &lt;i style=&quot;font-size: 21px;&quot;&gt;with the first request&lt;/i&gt;" style="rounded=1;whiteSpace=wrap;html=1;fontSize=21;align=center;fillColor=#1ba1e2;strokeColor=#006EAF;fontColor=#ffffff;arcSize=40;" parent="JNkHGROEs0F1F4ubXFPu-1" vertex="1">
                    <mxGeometry x="690" y="120" width="330" height="100" as="geometry"/>
                </mxCell>
                <mxCell id="JNkHGROEs0F1F4ubXFPu-44" value="" style="strokeWidth=1;shadow=0;dashed=0;align=center;html=1;shape=mxgraph.mockup.containers.browserWindow;rSize=0;strokeColor=#666666;strokeColor2=#008cff;strokeColor3=#c4c4c4;mainText=,;recursiveResize=0;fontSize=25;fontColor=#000000;" parent="JNkHGROEs0F1F4ubXFPu-1" vertex="1">
                    <mxGeometry x="70" y="650" width="260" height="330" as="geometry"/>
                </mxCell>
                <mxCell id="JNkHGROEs0F1F4ubXFPu-45" value="Page 1" style="strokeWidth=1;shadow=0;dashed=0;align=center;html=1;shape=mxgraph.mockup.containers.anchor;fontSize=17;fontColor=#666666;align=left;" parent="JNkHGROEs0F1F4ubXFPu-44" vertex="1">
                    <mxGeometry x="60" y="12" width="110" height="26" as="geometry"/>
                </mxCell>
                <mxCell id="JNkHGROEs0F1F4ubXFPu-46" value="" style="strokeWidth=1;shadow=0;dashed=0;align=center;html=1;shape=mxgraph.mockup.containers.anchor;rSize=0;fontSize=17;fontColor=#666666;align=left;" parent="JNkHGROEs0F1F4ubXFPu-44" vertex="1">
                    <mxGeometry x="130" y="60" width="250" height="26" as="geometry"/>
                </mxCell>
                <mxCell id="JNkHGROEs0F1F4ubXFPu-47" value="Server" style="rounded=0;whiteSpace=wrap;html=1;fontSize=25;fillColor=#dae8fc;strokeColor=#6c8ebf;fontStyle=1;fontColor=#000000;" parent="JNkHGROEs0F1F4ubXFPu-1" vertex="1">
                    <mxGeometry x="620" y="650" width="130" height="330" as="geometry"/>
                </mxCell>
                <mxCell id="JNkHGROEs0F1F4ubXFPu-48" value="" style="endArrow=classic;html=1;fontSize=25;fontColor=#000000;" parent="JNkHGROEs0F1F4ubXFPu-1" edge="1">
                    <mxGeometry width="50" height="50" relative="1" as="geometry">
                        <mxPoint x="330" y="680" as="sourcePoint"/>
                        <mxPoint x="620" y="680" as="targetPoint"/>
                    </mxGeometry>
                </mxCell>
                <mxCell id="JNkHGROEs0F1F4ubXFPu-49" value="" style="endArrow=classic;html=1;fontSize=25;fontColor=#000000;" parent="JNkHGROEs0F1F4ubXFPu-1" edge="1">
                    <mxGeometry width="50" height="50" relative="1" as="geometry">
                        <mxPoint x="330" y="800" as="sourcePoint"/>
                        <mxPoint x="620" y="800" as="targetPoint"/>
                    </mxGeometry>
                </mxCell>
                <mxCell id="JNkHGROEs0F1F4ubXFPu-50" value="" style="endArrow=classic;html=1;fontSize=25;fontColor=#000000;" parent="JNkHGROEs0F1F4ubXFPu-1" edge="1">
                    <mxGeometry width="50" height="50" relative="1" as="geometry">
                        <mxPoint x="330" y="920" as="sourcePoint"/>
                        <mxPoint x="620" y="920" as="targetPoint"/>
                    </mxGeometry>
                </mxCell>
                <mxCell id="JNkHGROEs0F1F4ubXFPu-51" value="Request" style="rounded=0;whiteSpace=wrap;html=1;fontSize=19;fillColor=#ffe6cc;strokeColor=#d79b00;fontColor=#000000;" parent="JNkHGROEs0F1F4ubXFPu-1" vertex="1">
                    <mxGeometry x="380" y="920" width="190" height="30" as="geometry"/>
                </mxCell>
                <mxCell id="JNkHGROEs0F1F4ubXFPu-52" value="Headers" style="rounded=0;whiteSpace=wrap;html=1;fontSize=13;fillColor=#ffe6cc;strokeColor=#d79b00;fontStyle=1;fontColor=#000000;" parent="JNkHGROEs0F1F4ubXFPu-1" vertex="1">
                    <mxGeometry x="380" y="950" width="190" height="20" as="geometry"/>
                </mxCell>
                <mxCell id="JNkHGROEs0F1F4ubXFPu-53" value="Cookie" style="rounded=0;whiteSpace=wrap;html=1;fontSize=13;fillColor=#ffe6cc;strokeColor=#d79b00;fontStyle=1;fontColor=#000000;" parent="JNkHGROEs0F1F4ubXFPu-1" vertex="1">
                    <mxGeometry x="380" y="970" width="100" height="20" as="geometry"/>
                </mxCell>
                <mxCell id="JNkHGROEs0F1F4ubXFPu-54" value="MY JWT" style="rounded=0;whiteSpace=wrap;html=1;fontSize=13;fillColor=#ffe6cc;strokeColor=#d79b00;fontColor=#000000;" parent="JNkHGROEs0F1F4ubXFPu-1" vertex="1">
                    <mxGeometry x="480" y="970" width="90" height="20" as="geometry"/>
                </mxCell>
                <mxCell id="JNkHGROEs0F1F4ubXFPu-56" value="Request" style="rounded=0;whiteSpace=wrap;html=1;fontSize=19;fillColor=#ffe6cc;strokeColor=#d79b00;fontColor=#000000;" parent="JNkHGROEs0F1F4ubXFPu-1" vertex="1">
                    <mxGeometry x="370" y="790" width="190" height="30" as="geometry"/>
                </mxCell>
                <mxCell id="JNkHGROEs0F1F4ubXFPu-57" value="Body" style="rounded=0;whiteSpace=wrap;html=1;fontSize=13;fillColor=#ffe6cc;strokeColor=#d79b00;fontStyle=1;fontColor=#000000;" parent="JNkHGROEs0F1F4ubXFPu-1" vertex="1">
                    <mxGeometry x="370" y="820" width="190" height="20" as="geometry"/>
                </mxCell>
                <mxCell id="JNkHGROEs0F1F4ubXFPu-58" value="token" style="rounded=0;whiteSpace=wrap;html=1;fontSize=13;fillColor=#ffe6cc;strokeColor=#d79b00;fontStyle=1;fontColor=#000000;" parent="JNkHGROEs0F1F4ubXFPu-1" vertex="1">
                    <mxGeometry x="370" y="840" width="100" height="20" as="geometry"/>
                </mxCell>
                <mxCell id="JNkHGROEs0F1F4ubXFPu-59" value="MY JWT" style="rounded=0;whiteSpace=wrap;html=1;fontSize=13;fillColor=#ffe6cc;strokeColor=#d79b00;fontColor=#000000;" parent="JNkHGROEs0F1F4ubXFPu-1" vertex="1">
                    <mxGeometry x="470" y="840" width="90" height="20" as="geometry"/>
                </mxCell>
                <mxCell id="JNkHGROEs0F1F4ubXFPu-60" value="Request" style="rounded=0;whiteSpace=wrap;html=1;fontSize=19;fillColor=#ffe6cc;strokeColor=#d79b00;fontColor=#000000;" parent="JNkHGROEs0F1F4ubXFPu-1" vertex="1">
                    <mxGeometry x="370" y="650" width="190" height="30" as="geometry"/>
                </mxCell>
                <mxCell id="JNkHGROEs0F1F4ubXFPu-61" value="Authorization" style="rounded=0;whiteSpace=wrap;html=1;fontSize=13;fillColor=#ffe6cc;strokeColor=#d79b00;fontStyle=1;fontColor=#000000;" parent="JNkHGROEs0F1F4ubXFPu-1" vertex="1">
                    <mxGeometry x="370" y="700" width="100" height="20" as="geometry"/>
                </mxCell>
                <mxCell id="JNkHGROEs0F1F4ubXFPu-62" value="MY JWT" style="rounded=0;whiteSpace=wrap;html=1;fontSize=13;fillColor=#ffe6cc;strokeColor=#d79b00;fontColor=#000000;" parent="JNkHGROEs0F1F4ubXFPu-1" vertex="1">
                    <mxGeometry x="470" y="700" width="90" height="20" as="geometry"/>
                </mxCell>
                <mxCell id="JNkHGROEs0F1F4ubXFPu-63" value="Headers" style="rounded=0;whiteSpace=wrap;html=1;fontSize=13;fillColor=#ffe6cc;strokeColor=#d79b00;fontStyle=1;fontColor=#000000;" parent="JNkHGROEs0F1F4ubXFPu-1" vertex="1">
                    <mxGeometry x="370" y="680" width="190" height="20" as="geometry"/>
                </mxCell>
                <mxCell id="JNkHGROEs0F1F4ubXFPu-64" value="" style="strokeWidth=1;shadow=0;dashed=0;align=center;html=1;shape=mxgraph.mockup.containers.browserWindow;rSize=0;strokeColor=#666666;strokeColor2=#008cff;strokeColor3=#c4c4c4;mainText=,;recursiveResize=0;fontSize=25;fontColor=#000000;" parent="JNkHGROEs0F1F4ubXFPu-1" vertex="1">
                    <mxGeometry x="975" y="640" width="260" height="330" as="geometry"/>
                </mxCell>
                <mxCell id="JNkHGROEs0F1F4ubXFPu-65" value="Page 1" style="strokeWidth=1;shadow=0;dashed=0;align=center;html=1;shape=mxgraph.mockup.containers.anchor;fontSize=17;fontColor=#666666;align=left;" parent="JNkHGROEs0F1F4ubXFPu-64" vertex="1">
                    <mxGeometry x="60" y="12" width="110" height="26" as="geometry"/>
                </mxCell>
                <mxCell id="JNkHGROEs0F1F4ubXFPu-66" value="" style="strokeWidth=1;shadow=0;dashed=0;align=center;html=1;shape=mxgraph.mockup.containers.anchor;rSize=0;fontSize=17;fontColor=#666666;align=left;" parent="JNkHGROEs0F1F4ubXFPu-64" vertex="1">
                    <mxGeometry x="130" y="60" width="250" height="26" as="geometry"/>
                </mxCell>
                <mxCell id="JNkHGROEs0F1F4ubXFPu-67" value="Server" style="rounded=0;whiteSpace=wrap;html=1;fontSize=25;fillColor=#dae8fc;strokeColor=#6c8ebf;fontStyle=1;fontColor=#000000;" parent="JNkHGROEs0F1F4ubXFPu-1" vertex="1">
                    <mxGeometry x="1525" y="640" width="130" height="330" as="geometry"/>
                </mxCell>
                <mxCell id="JNkHGROEs0F1F4ubXFPu-68" value="" style="endArrow=classic;html=1;fontSize=25;fontColor=#000000;" parent="JNkHGROEs0F1F4ubXFPu-1" edge="1">
                    <mxGeometry width="50" height="50" relative="1" as="geometry">
                        <mxPoint x="1235" y="670" as="sourcePoint"/>
                        <mxPoint x="1525" y="670" as="targetPoint"/>
                    </mxGeometry>
                </mxCell>
                <mxCell id="JNkHGROEs0F1F4ubXFPu-69" value="" style="endArrow=classic;html=1;fontSize=25;fontColor=#000000;" parent="JNkHGROEs0F1F4ubXFPu-1" edge="1">
                    <mxGeometry width="50" height="50" relative="1" as="geometry">
                        <mxPoint x="1235" y="790" as="sourcePoint"/>
                        <mxPoint x="1525" y="790" as="targetPoint"/>
                    </mxGeometry>
                </mxCell>
                <mxCell id="JNkHGROEs0F1F4ubXFPu-70" value="" style="endArrow=classic;html=1;fontSize=25;fontColor=#000000;" parent="JNkHGROEs0F1F4ubXFPu-1" edge="1">
                    <mxGeometry width="50" height="50" relative="1" as="geometry">
                        <mxPoint x="1235" y="910" as="sourcePoint"/>
                        <mxPoint x="1525" y="910" as="targetPoint"/>
                    </mxGeometry>
                </mxCell>
                <mxCell id="JNkHGROEs0F1F4ubXFPu-71" value="Request" style="rounded=0;whiteSpace=wrap;html=1;fontSize=19;fillColor=#ffe6cc;strokeColor=#d79b00;fontColor=#000000;" parent="JNkHGROEs0F1F4ubXFPu-1" vertex="1">
                    <mxGeometry x="1285" y="910" width="190" height="30" as="geometry"/>
                </mxCell>
                <mxCell id="JNkHGROEs0F1F4ubXFPu-72" value="Headers" style="rounded=0;whiteSpace=wrap;html=1;fontSize=13;fillColor=#ffe6cc;strokeColor=#d79b00;fontStyle=1;fontColor=#000000;" parent="JNkHGROEs0F1F4ubXFPu-1" vertex="1">
                    <mxGeometry x="1285" y="940" width="190" height="20" as="geometry"/>
                </mxCell>
                <mxCell id="JNkHGROEs0F1F4ubXFPu-73" value="Cookie" style="rounded=0;whiteSpace=wrap;html=1;fontSize=13;fillColor=#ffe6cc;strokeColor=#d79b00;fontStyle=1;fontColor=#000000;" parent="JNkHGROEs0F1F4ubXFPu-1" vertex="1">
                    <mxGeometry x="1285" y="960" width="100" height="20" as="geometry"/>
                </mxCell>
                <mxCell id="JNkHGROEs0F1F4ubXFPu-74" value="MY JWT" style="rounded=0;whiteSpace=wrap;html=1;fontSize=13;fillColor=#ffe6cc;strokeColor=#d79b00;fontColor=#000000;" parent="JNkHGROEs0F1F4ubXFPu-1" vertex="1">
                    <mxGeometry x="1385" y="960" width="90" height="20" as="geometry"/>
                </mxCell>
                <mxCell id="JNkHGROEs0F1F4ubXFPu-75" value="" style="shape=singleArrow;direction=south;whiteSpace=wrap;html=1;fontColor=#000000;arrowWidth=0.28;arrowSize=0.18;fillColor=#33FF33;" parent="JNkHGROEs0F1F4ubXFPu-1" vertex="1">
                    <mxGeometry x="1090" y="510" width="50" height="100" as="geometry"/>
                </mxCell>
                <mxCell id="JNkHGROEs0F1F4ubXFPu-77" value="Options to send the token on a request" style="rounded=1;whiteSpace=wrap;html=1;fontSize=21;align=center;fillColor=#1ba1e2;strokeColor=#006EAF;fontColor=#ffffff;arcSize=38;" parent="JNkHGROEs0F1F4ubXFPu-1" vertex="1">
                    <mxGeometry x="10" y="540" width="210" height="80" as="geometry"/>
                </mxCell>
                <mxCell id="JNkHGROEs0F1F4ubXFPu-78" value="With the SSR we will remain with one option to send the cookie" style="rounded=1;whiteSpace=wrap;html=1;fontSize=21;align=center;fillColor=#1ba1e2;strokeColor=#006EAF;fontColor=#ffffff;arcSize=33;" parent="JNkHGROEs0F1F4ubXFPu-1" vertex="1">
                    <mxGeometry x="1390" y="470" width="280" height="150" as="geometry"/>
                </mxCell>
            </root>
        </mxGraphModel>
    </diagram>
    <diagram id="mDgVP7-o3KTjvQFtGrMG" name="sign up">
        <mxGraphModel dx="479" dy="548" grid="1" gridSize="10" guides="1" tooltips="1" connect="1" arrows="1" fold="1" page="1" pageScale="1" pageWidth="850" pageHeight="1100" math="0" shadow="0">
            <root>
                <mxCell id="2ePLKepx3ksOfY-r8SGx-0"/>
                <mxCell id="2ePLKepx3ksOfY-r8SGx-1" parent="2ePLKepx3ksOfY-r8SGx-0"/>
                <mxCell id="2ePLKepx3ksOfY-r8SGx-48" value="" style="strokeWidth=1;shadow=0;dashed=0;align=center;html=1;shape=mxgraph.mockup.containers.browserWindow;rSize=0;strokeColor=#666666;strokeColor2=#008cff;strokeColor3=#c4c4c4;mainText=,;recursiveResize=0;fontStyle=1;fontColor=#000000;" parent="2ePLKepx3ksOfY-r8SGx-1" vertex="1">
                    <mxGeometry x="250" y="295" width="190" height="250" as="geometry"/>
                </mxCell>
                <mxCell id="2ePLKepx3ksOfY-r8SGx-49" value="Page 1" style="strokeWidth=1;shadow=0;dashed=0;align=center;html=1;shape=mxgraph.mockup.containers.anchor;fontSize=17;fontColor=#666666;align=left;" parent="2ePLKepx3ksOfY-r8SGx-48" vertex="1">
                    <mxGeometry x="60" y="12" width="110" height="26" as="geometry"/>
                </mxCell>
                <mxCell id="2ePLKepx3ksOfY-r8SGx-50" value="" style="strokeWidth=1;shadow=0;dashed=0;align=center;html=1;shape=mxgraph.mockup.containers.anchor;rSize=0;fontSize=17;fontColor=#666666;align=left;" parent="2ePLKepx3ksOfY-r8SGx-48" vertex="1">
                    <mxGeometry x="130" y="60" width="250" height="26" as="geometry"/>
                </mxCell>
                <mxCell id="2ePLKepx3ksOfY-r8SGx-51" value="React App" style="rounded=0;whiteSpace=wrap;html=1;fontSize=22;fillColor=#ffe6cc;strokeColor=#d79b00;fontStyle=1;fontColor=#000000;" parent="2ePLKepx3ksOfY-r8SGx-48" vertex="1">
                    <mxGeometry x="10" y="140" width="160" height="80" as="geometry"/>
                </mxCell>
                <mxCell id="2ePLKepx3ksOfY-r8SGx-52" value="Auth Service" style="rounded=0;whiteSpace=wrap;html=1;strokeColor=#666666;fontColor=#333333;fontStyle=1;fontSize=19;fillColor=#CCCCCC;" parent="2ePLKepx3ksOfY-r8SGx-1" vertex="1">
                    <mxGeometry x="700" y="290" width="420" height="35" as="geometry"/>
                </mxCell>
                <mxCell id="2ePLKepx3ksOfY-r8SGx-53" value="" style="rounded=0;whiteSpace=wrap;html=1;fillColor=#f5f5f5;strokeColor=#666666;fontColor=#333333;fontStyle=1;fontSize=19;" parent="2ePLKepx3ksOfY-r8SGx-1" vertex="1">
                    <mxGeometry x="700" y="325" width="420" height="230" as="geometry"/>
                </mxCell>
                <mxCell id="2ePLKepx3ksOfY-r8SGx-54" value="" style="endArrow=classic;html=1;fontSize=15;strokeWidth=2;" parent="2ePLKepx3ksOfY-r8SGx-1" edge="1">
                    <mxGeometry width="50" height="50" relative="1" as="geometry">
                        <mxPoint x="510" y="355" as="sourcePoint"/>
                        <mxPoint x="700" y="355" as="targetPoint"/>
                    </mxGeometry>
                </mxCell>
                <mxCell id="2ePLKepx3ksOfY-r8SGx-55" value="{ email, password }" style="rounded=0;whiteSpace=wrap;html=1;fontSize=15;fillColor=#dae8fc;strokeColor=#6c8ebf;fontColor=#000000;" parent="2ePLKepx3ksOfY-r8SGx-1" vertex="1">
                    <mxGeometry x="530" y="315" width="140" height="40" as="geometry"/>
                </mxCell>
                <mxCell id="2ePLKepx3ksOfY-r8SGx-56" style="edgeStyle=orthogonalEdgeStyle;rounded=0;orthogonalLoop=1;jettySize=auto;html=1;exitX=0.5;exitY=1;exitDx=0;exitDy=0;entryX=0.5;entryY=0;entryDx=0;entryDy=0;fontSize=13;" parent="2ePLKepx3ksOfY-r8SGx-1" source="2ePLKepx3ksOfY-r8SGx-58" target="2ePLKepx3ksOfY-r8SGx-61" edge="1">
                    <mxGeometry relative="1" as="geometry"/>
                </mxCell>
                <mxCell id="2ePLKepx3ksOfY-r8SGx-57" style="edgeStyle=orthogonalEdgeStyle;rounded=0;orthogonalLoop=1;jettySize=auto;html=1;exitX=1;exitY=0.5;exitDx=0;exitDy=0;entryX=-0.008;entryY=0.134;entryDx=0;entryDy=0;entryPerimeter=0;fontSize=13;" parent="2ePLKepx3ksOfY-r8SGx-1" source="2ePLKepx3ksOfY-r8SGx-58" target="2ePLKepx3ksOfY-r8SGx-71" edge="1">
                    <mxGeometry relative="1" as="geometry"/>
                </mxCell>
                <mxCell id="2ePLKepx3ksOfY-r8SGx-58" value="Does a user with this email already exist? If so, respond with error" style="rounded=0;whiteSpace=wrap;html=1;fontSize=13;" parent="2ePLKepx3ksOfY-r8SGx-1" vertex="1">
                    <mxGeometry x="710" y="335" width="280" height="40" as="geometry"/>
                </mxCell>
                <mxCell id="2ePLKepx3ksOfY-r8SGx-59" value="&lt;b&gt;SIGN UP&lt;/b&gt;" style="rounded=0;whiteSpace=wrap;html=1;fontSize=15;fillColor=#dae8fc;strokeColor=#6c8ebf;fontColor=#000000;" parent="2ePLKepx3ksOfY-r8SGx-1" vertex="1">
                    <mxGeometry x="530" y="290" width="140" height="25" as="geometry"/>
                </mxCell>
                <mxCell id="2ePLKepx3ksOfY-r8SGx-60" style="edgeStyle=orthogonalEdgeStyle;rounded=0;orthogonalLoop=1;jettySize=auto;html=1;exitX=0.5;exitY=1;exitDx=0;exitDy=0;entryX=0.5;entryY=0;entryDx=0;entryDy=0;fontSize=13;" parent="2ePLKepx3ksOfY-r8SGx-1" source="2ePLKepx3ksOfY-r8SGx-61" target="2ePLKepx3ksOfY-r8SGx-63" edge="1">
                    <mxGeometry relative="1" as="geometry"/>
                </mxCell>
                <mxCell id="2ePLKepx3ksOfY-r8SGx-61" value="Can't store passwords in plain text!&amp;nbsp; Hash the password the user entered" style="rounded=0;whiteSpace=wrap;html=1;fontSize=13;" parent="2ePLKepx3ksOfY-r8SGx-1" vertex="1">
                    <mxGeometry x="710" y="390" width="280" height="40" as="geometry"/>
                </mxCell>
                <mxCell id="2ePLKepx3ksOfY-r8SGx-62" style="edgeStyle=orthogonalEdgeStyle;rounded=0;orthogonalLoop=1;jettySize=auto;html=1;exitX=1;exitY=0.5;exitDx=0;exitDy=0;entryX=-0.022;entryY=0.864;entryDx=0;entryDy=0;entryPerimeter=0;fontSize=13;" parent="2ePLKepx3ksOfY-r8SGx-1" source="2ePLKepx3ksOfY-r8SGx-63" target="2ePLKepx3ksOfY-r8SGx-71" edge="1">
                    <mxGeometry relative="1" as="geometry"/>
                </mxCell>
                <mxCell id="2ePLKepx3ksOfY-r8SGx-63" value="Create a new User and save them to MongoDB" style="rounded=0;whiteSpace=wrap;html=1;fontSize=13;" parent="2ePLKepx3ksOfY-r8SGx-1" vertex="1">
                    <mxGeometry x="710" y="445" width="280" height="40" as="geometry"/>
                </mxCell>
                <mxCell id="2ePLKepx3ksOfY-r8SGx-64" style="edgeStyle=orthogonalEdgeStyle;rounded=0;orthogonalLoop=1;jettySize=auto;html=1;exitX=0.5;exitY=1;exitDx=0;exitDy=0;entryX=0.5;entryY=0;entryDx=0;entryDy=0;fontSize=13;" parent="2ePLKepx3ksOfY-r8SGx-1" target="2ePLKepx3ksOfY-r8SGx-66" edge="1">
                    <mxGeometry relative="1" as="geometry">
                        <mxPoint x="850" y="485" as="sourcePoint"/>
                    </mxGeometry>
                </mxCell>
                <mxCell id="2ePLKepx3ksOfY-r8SGx-65" style="edgeStyle=orthogonalEdgeStyle;rounded=0;orthogonalLoop=1;jettySize=auto;html=1;exitX=0;exitY=0.5;exitDx=0;exitDy=0;fontSize=13;strokeWidth=2;" parent="2ePLKepx3ksOfY-r8SGx-1" source="2ePLKepx3ksOfY-r8SGx-66" edge="1">
                    <mxGeometry relative="1" as="geometry">
                        <mxPoint x="510" y="520" as="targetPoint"/>
                    </mxGeometry>
                </mxCell>
                <mxCell id="2ePLKepx3ksOfY-r8SGx-66" value="User is now considered to be logged in.&amp;nbsp; Send them a JWT in a cookie" style="rounded=0;whiteSpace=wrap;html=1;fontSize=13;" parent="2ePLKepx3ksOfY-r8SGx-1" vertex="1">
                    <mxGeometry x="710" y="500" width="280" height="40" as="geometry"/>
                </mxCell>
                <mxCell id="2ePLKepx3ksOfY-r8SGx-70" style="edgeStyle=orthogonalEdgeStyle;rounded=0;orthogonalLoop=1;jettySize=auto;html=1;exitX=1;exitY=0.5;exitDx=0;exitDy=0;entryX=0;entryY=0.25;entryDx=0;entryDy=0;fontSize=13;strokeWidth=2;" parent="2ePLKepx3ksOfY-r8SGx-1" source="2ePLKepx3ksOfY-r8SGx-71" target="2ePLKepx3ksOfY-r8SGx-76" edge="1">
                    <mxGeometry relative="1" as="geometry">
                        <mxPoint x="1270" y="440" as="targetPoint"/>
                    </mxGeometry>
                </mxCell>
                <mxCell id="2ePLKepx3ksOfY-r8SGx-71" value="Mongoose User Model" style="rounded=0;whiteSpace=wrap;html=1;fontSize=13;fillColor=#fff2cc;strokeColor=#d6b656;fontStyle=1;fontColor=#000000;" parent="2ePLKepx3ksOfY-r8SGx-1" vertex="1">
                    <mxGeometry x="1030" y="335" width="80" height="150" as="geometry"/>
                </mxCell>
                <mxCell id="2ePLKepx3ksOfY-r8SGx-72" value="&lt;b&gt;Response&lt;/b&gt;" style="rounded=0;whiteSpace=wrap;html=1;fontSize=15;fillColor=#dae8fc;strokeColor=#6c8ebf;fontColor=#000000;" parent="2ePLKepx3ksOfY-r8SGx-1" vertex="1">
                    <mxGeometry x="540" y="520" width="143" height="25" as="geometry"/>
                </mxCell>
                <mxCell id="2ePLKepx3ksOfY-r8SGx-73" value="&lt;b&gt;Headers&lt;/b&gt;" style="rounded=0;whiteSpace=wrap;html=1;fontSize=15;fillColor=#dae8fc;strokeColor=#6c8ebf;fontColor=#000000;" parent="2ePLKepx3ksOfY-r8SGx-1" vertex="1">
                    <mxGeometry x="540" y="545" width="143" height="25" as="geometry"/>
                </mxCell>
                <mxCell id="2ePLKepx3ksOfY-r8SGx-74" value="&lt;span&gt;Set-Cookie&lt;/span&gt;" style="rounded=0;whiteSpace=wrap;html=1;fontSize=15;fillColor=#dae8fc;strokeColor=#6c8ebf;fontStyle=0;fontColor=#000000;" parent="2ePLKepx3ksOfY-r8SGx-1" vertex="1">
                    <mxGeometry x="540" y="570" width="80" height="25" as="geometry"/>
                </mxCell>
                <mxCell id="2ePLKepx3ksOfY-r8SGx-75" value="&lt;span&gt;JWT&lt;/span&gt;" style="rounded=0;whiteSpace=wrap;html=1;fontSize=15;fillColor=#dae8fc;strokeColor=#6c8ebf;fontStyle=0;fontColor=#000000;" parent="2ePLKepx3ksOfY-r8SGx-1" vertex="1">
                    <mxGeometry x="620" y="570" width="63" height="25" as="geometry"/>
                </mxCell>
                <mxCell id="2ePLKepx3ksOfY-r8SGx-76" value="" style="rounded=0;whiteSpace=wrap;html=1;fontSize=13;fontColor=#FFFFFF;" parent="2ePLKepx3ksOfY-r8SGx-1" vertex="1">
                    <mxGeometry x="1230" y="385" width="200" height="100" as="geometry"/>
                </mxCell>
                <mxCell id="2ePLKepx3ksOfY-r8SGx-77" value="{ email: 'test@test.com', password: '&lt;span style=&quot;font-size: 13px&quot;&gt;&lt;b&gt;lkjsdlkj23lk5jl2l&lt;/b&gt;&lt;/span&gt;' }" style="rounded=0;whiteSpace=wrap;html=1;fontSize=12;fillColor=#d5e8d4;strokeColor=#82b366;fontColor=#000000;" parent="2ePLKepx3ksOfY-r8SGx-1" vertex="1">
                    <mxGeometry x="1245" y="405" width="175" height="40" as="geometry"/>
                </mxCell>
                <mxCell id="2ePLKepx3ksOfY-r8SGx-78" value="User Collection" style="rounded=0;whiteSpace=wrap;html=1;fontSize=13;fontColor=#FFFFFF;" parent="2ePLKepx3ksOfY-r8SGx-1" vertex="1">
                    <mxGeometry x="1230" y="350" width="200" height="35" as="geometry"/>
                </mxCell>
                <mxCell id="2ePLKepx3ksOfY-r8SGx-80" value="&lt;span style=&quot;font-size: 19px;&quot;&gt;MongoDB&lt;/span&gt;" style="rounded=0;whiteSpace=wrap;html=1;fontSize=13;fillColor=#e1d5e7;strokeColor=#9673a6;fontStyle=1;fontColor=#000000;" parent="2ePLKepx3ksOfY-r8SGx-1" vertex="1">
                    <mxGeometry x="1217.5" y="315" width="230" height="35" as="geometry"/>
                </mxCell>
            </root>
        </mxGraphModel>
    </diagram>
    <diagram id="AYtjZKpy3S1ALM4sAhjc" name="sign in">
        &#xa;
        <mxGraphModel dx="479" dy="548" grid="1" gridSize="10" guides="1" tooltips="1" connect="1" arrows="1" fold="1" page="1" pageScale="1" pageWidth="850" pageHeight="1100" math="0" shadow="0">
            &#xa;
            <root>
                &#xa;
                <mxCell id="HY1SN_5mMg5IJgrjzyaV-0"/>
                &#xa;
                <mxCell id="HY1SN_5mMg5IJgrjzyaV-1" parent="HY1SN_5mMg5IJgrjzyaV-0"/>
                &#xa;
                <mxCell id="k2vZWX-860OpY5j8V-PU-0" value="" style="strokeWidth=1;shadow=0;dashed=0;align=center;html=1;shape=mxgraph.mockup.containers.browserWindow;rSize=0;strokeColor=#666666;strokeColor2=#008cff;strokeColor3=#c4c4c4;mainText=,;recursiveResize=0;fontStyle=1;fontColor=#000000;" parent="HY1SN_5mMg5IJgrjzyaV-1" vertex="1">
                    &#xa;
                    <mxGeometry x="250" y="295" width="190" height="250" as="geometry"/>
                    &#xa;
                </mxCell>
                &#xa;
                <mxCell id="k2vZWX-860OpY5j8V-PU-1" value="Page 1" style="strokeWidth=1;shadow=0;dashed=0;align=center;html=1;shape=mxgraph.mockup.containers.anchor;fontSize=17;fontColor=#666666;align=left;" parent="k2vZWX-860OpY5j8V-PU-0" vertex="1">
                    &#xa;
                    <mxGeometry x="60" y="12" width="110" height="26" as="geometry"/>
                    &#xa;
                </mxCell>
                &#xa;
                <mxCell id="k2vZWX-860OpY5j8V-PU-2" value="" style="strokeWidth=1;shadow=0;dashed=0;align=center;html=1;shape=mxgraph.mockup.containers.anchor;rSize=0;fontSize=17;fontColor=#666666;align=left;" parent="k2vZWX-860OpY5j8V-PU-0" vertex="1">
                    &#xa;
                    <mxGeometry x="130" y="60" width="250" height="26" as="geometry"/>
                    &#xa;
                </mxCell>
                &#xa;
                <mxCell id="k2vZWX-860OpY5j8V-PU-3" value="React App" style="rounded=0;whiteSpace=wrap;html=1;fontSize=22;fillColor=#ffe6cc;strokeColor=#d79b00;fontStyle=1;fontColor=#000000;" parent="k2vZWX-860OpY5j8V-PU-0" vertex="1">
                    &#xa;
                    <mxGeometry x="10" y="140" width="160" height="80" as="geometry"/>
                    &#xa;
                </mxCell>
                &#xa;
                <mxCell id="k2vZWX-860OpY5j8V-PU-4" value="Auth Service" style="rounded=0;whiteSpace=wrap;html=1;strokeColor=#666666;fontColor=#333333;fontStyle=1;fontSize=19;fillColor=#CCCCCC;" parent="HY1SN_5mMg5IJgrjzyaV-1" vertex="1">
                    &#xa;
                    <mxGeometry x="700" y="290" width="420" height="35" as="geometry"/>
                    &#xa;
                </mxCell>
                &#xa;
                <mxCell id="k2vZWX-860OpY5j8V-PU-5" value="" style="rounded=0;whiteSpace=wrap;html=1;fillColor=#f5f5f5;strokeColor=#666666;fontColor=#333333;fontStyle=1;fontSize=19;" parent="HY1SN_5mMg5IJgrjzyaV-1" vertex="1">
                    &#xa;
                    <mxGeometry x="700" y="325" width="420" height="230" as="geometry"/>
                    &#xa;
                </mxCell>
                &#xa;
                <mxCell id="k2vZWX-860OpY5j8V-PU-6" value="" style="endArrow=classic;html=1;fontSize=15;strokeWidth=2;" parent="HY1SN_5mMg5IJgrjzyaV-1" edge="1">
                    &#xa;
                    <mxGeometry width="50" height="50" relative="1" as="geometry">
                        &#xa;
                        <mxPoint x="510" y="355" as="sourcePoint"/>
                        &#xa;
                        <mxPoint x="700" y="355" as="targetPoint"/>
                        &#xa;
                    </mxGeometry>
                    &#xa;
                </mxCell>
                &#xa;
                <mxCell id="k2vZWX-860OpY5j8V-PU-7" value="{ email, password }" style="rounded=0;whiteSpace=wrap;html=1;fontSize=15;fillColor=#dae8fc;strokeColor=#6c8ebf;fontColor=#000000;" parent="HY1SN_5mMg5IJgrjzyaV-1" vertex="1">
                    &#xa;
                    <mxGeometry x="530" y="315" width="140" height="40" as="geometry"/>
                    &#xa;
                </mxCell>
                &#xa;
                <mxCell id="k2vZWX-860OpY5j8V-PU-8" style="edgeStyle=orthogonalEdgeStyle;rounded=0;orthogonalLoop=1;jettySize=auto;html=1;exitX=0.5;exitY=1;exitDx=0;exitDy=0;entryX=0.5;entryY=0;entryDx=0;entryDy=0;fontSize=13;" parent="HY1SN_5mMg5IJgrjzyaV-1" source="k2vZWX-860OpY5j8V-PU-10" target="k2vZWX-860OpY5j8V-PU-13" edge="1">
                    &#xa;
                    <mxGeometry relative="1" as="geometry"/>
                    &#xa;
                </mxCell>
                &#xa;
                <mxCell id="k2vZWX-860OpY5j8V-PU-9" style="edgeStyle=orthogonalEdgeStyle;rounded=0;orthogonalLoop=1;jettySize=auto;html=1;exitX=1;exitY=0.5;exitDx=0;exitDy=0;entryX=-0.008;entryY=0.134;entryDx=0;entryDy=0;entryPerimeter=0;fontSize=13;" parent="HY1SN_5mMg5IJgrjzyaV-1" source="k2vZWX-860OpY5j8V-PU-10" target="k2vZWX-860OpY5j8V-PU-20" edge="1">
                    &#xa;
                    <mxGeometry relative="1" as="geometry"/>
                    &#xa;
                </mxCell>
                &#xa;
                <mxCell id="k2vZWX-860OpY5j8V-PU-10" value="Does a user with this email already exist? If so, respond with error" style="rounded=0;whiteSpace=wrap;html=1;fontSize=13;" parent="HY1SN_5mMg5IJgrjzyaV-1" vertex="1">
                    &#xa;
                    <mxGeometry x="710" y="335" width="280" height="40" as="geometry"/>
                    &#xa;
                </mxCell>
                &#xa;
                <mxCell id="k2vZWX-860OpY5j8V-PU-11" value="&lt;b&gt;SIGN IN&lt;/b&gt;" style="rounded=0;whiteSpace=wrap;html=1;fontSize=15;fillColor=#dae8fc;strokeColor=#6c8ebf;fontColor=#000000;" parent="HY1SN_5mMg5IJgrjzyaV-1" vertex="1">
                    &#xa;
                    <mxGeometry x="530" y="290" width="140" height="25" as="geometry"/>
                    &#xa;
                </mxCell>
                &#xa;
                <mxCell id="k2vZWX-860OpY5j8V-PU-12" style="edgeStyle=orthogonalEdgeStyle;rounded=0;orthogonalLoop=1;jettySize=auto;html=1;exitX=0.5;exitY=1;exitDx=0;exitDy=0;entryX=0.5;entryY=0;entryDx=0;entryDy=0;fontSize=13;" parent="HY1SN_5mMg5IJgrjzyaV-1" source="k2vZWX-860OpY5j8V-PU-13" target="k2vZWX-860OpY5j8V-PU-15" edge="1">
                    &#xa;
                    <mxGeometry relative="1" as="geometry"/>
                    &#xa;
                </mxCell>
                &#xa;
                <mxCell id="k2vZWX-860OpY5j8V-PU-13" value="Compare the passwords of the stored user and the supplied password" style="rounded=0;whiteSpace=wrap;html=1;fontSize=13;" parent="HY1SN_5mMg5IJgrjzyaV-1" vertex="1">
                    &#xa;
                    <mxGeometry x="710" y="390" width="280" height="40" as="geometry"/>
                    &#xa;
                </mxCell>
                &#xa;
                <mxCell id="k2vZWX-860OpY5j8V-PU-14" style="edgeStyle=orthogonalEdgeStyle;rounded=0;orthogonalLoop=1;jettySize=auto;html=1;exitX=1;exitY=0.5;exitDx=0;exitDy=0;entryX=-0.022;entryY=0.864;entryDx=0;entryDy=0;entryPerimeter=0;fontSize=13;" parent="HY1SN_5mMg5IJgrjzyaV-1" source="k2vZWX-860OpY5j8V-PU-15" target="k2vZWX-860OpY5j8V-PU-20" edge="1">
                    &#xa;
                    <mxGeometry relative="1" as="geometry"/>
                    &#xa;
                </mxCell>
                &#xa;
                <mxCell id="k2vZWX-860OpY5j8V-PU-15" value="If passwords are the same, we are good!" style="rounded=0;whiteSpace=wrap;html=1;fontSize=13;" parent="HY1SN_5mMg5IJgrjzyaV-1" vertex="1">
                    &#xa;
                    <mxGeometry x="710" y="445" width="280" height="40" as="geometry"/>
                    &#xa;
                </mxCell>
                &#xa;
                <mxCell id="k2vZWX-860OpY5j8V-PU-16" style="edgeStyle=orthogonalEdgeStyle;rounded=0;orthogonalLoop=1;jettySize=auto;html=1;exitX=0.5;exitY=1;exitDx=0;exitDy=0;entryX=0.5;entryY=0;entryDx=0;entryDy=0;fontSize=13;" parent="HY1SN_5mMg5IJgrjzyaV-1" target="k2vZWX-860OpY5j8V-PU-18" edge="1">
                    &#xa;
                    <mxGeometry relative="1" as="geometry">
                        &#xa;
                        <mxPoint x="850" y="485" as="sourcePoint"/>
                        &#xa;
                    </mxGeometry>
                    &#xa;
                </mxCell>
                &#xa;
                <mxCell id="k2vZWX-860OpY5j8V-PU-17" style="edgeStyle=orthogonalEdgeStyle;rounded=0;orthogonalLoop=1;jettySize=auto;html=1;exitX=0;exitY=0.5;exitDx=0;exitDy=0;fontSize=13;strokeWidth=2;" parent="HY1SN_5mMg5IJgrjzyaV-1" source="k2vZWX-860OpY5j8V-PU-18" edge="1">
                    &#xa;
                    <mxGeometry relative="1" as="geometry">
                        &#xa;
                        <mxPoint x="510" y="520" as="targetPoint"/>
                        &#xa;
                    </mxGeometry>
                    &#xa;
                </mxCell>
                &#xa;
                <mxCell id="k2vZWX-860OpY5j8V-PU-18" value="User is now considered to be logged in.&amp;nbsp; Send them a JWT in a cookie" style="rounded=0;whiteSpace=wrap;html=1;fontSize=13;" parent="HY1SN_5mMg5IJgrjzyaV-1" vertex="1">
                    &#xa;
                    <mxGeometry x="710" y="500" width="280" height="40" as="geometry"/>
                    &#xa;
                </mxCell>
                &#xa;
                <mxCell id="k2vZWX-860OpY5j8V-PU-19" style="edgeStyle=orthogonalEdgeStyle;rounded=0;orthogonalLoop=1;jettySize=auto;html=1;exitX=1;exitY=0.5;exitDx=0;exitDy=0;entryX=0;entryY=0.5;entryDx=0;entryDy=0;fontSize=13;strokeWidth=2;" parent="HY1SN_5mMg5IJgrjzyaV-1" source="k2vZWX-860OpY5j8V-PU-20" target="k2vZWX-860OpY5j8V-PU-27" edge="1">
                    &#xa;
                    <mxGeometry relative="1" as="geometry">
                        &#xa;
                        <mxPoint x="1230" y="410" as="targetPoint"/>
                        &#xa;
                    </mxGeometry>
                    &#xa;
                </mxCell>
                &#xa;
                <mxCell id="k2vZWX-860OpY5j8V-PU-20" value="Mongoose User Model" style="rounded=0;whiteSpace=wrap;html=1;fontSize=13;fillColor=#fff2cc;strokeColor=#d6b656;fontStyle=1;fontColor=#000000;" parent="HY1SN_5mMg5IJgrjzyaV-1" vertex="1">
                    &#xa;
                    <mxGeometry x="1030" y="335" width="80" height="150" as="geometry"/>
                    &#xa;
                </mxCell>
                &#xa;
                <mxCell id="k2vZWX-860OpY5j8V-PU-21" value="&lt;b&gt;Response&lt;/b&gt;" style="rounded=0;whiteSpace=wrap;html=1;fontSize=15;fillColor=#dae8fc;strokeColor=#6c8ebf;fontColor=#000000;" parent="HY1SN_5mMg5IJgrjzyaV-1" vertex="1">
                    &#xa;
                    <mxGeometry x="540" y="520" width="143" height="25" as="geometry"/>
                    &#xa;
                </mxCell>
                &#xa;
                <mxCell id="k2vZWX-860OpY5j8V-PU-22" value="&lt;b&gt;Headers&lt;/b&gt;" style="rounded=0;whiteSpace=wrap;html=1;fontSize=15;fillColor=#dae8fc;strokeColor=#6c8ebf;fontColor=#000000;" parent="HY1SN_5mMg5IJgrjzyaV-1" vertex="1">
                    &#xa;
                    <mxGeometry x="540" y="545" width="143" height="25" as="geometry"/>
                    &#xa;
                </mxCell>
                &#xa;
                <mxCell id="k2vZWX-860OpY5j8V-PU-23" value="&lt;span&gt;Set-Cookie&lt;/span&gt;" style="rounded=0;whiteSpace=wrap;html=1;fontSize=15;fillColor=#dae8fc;strokeColor=#6c8ebf;fontStyle=0;fontColor=#000000;" parent="HY1SN_5mMg5IJgrjzyaV-1" vertex="1">
                    &#xa;
                    <mxGeometry x="540" y="570" width="80" height="25" as="geometry"/>
                    &#xa;
                </mxCell>
                &#xa;
                <mxCell id="k2vZWX-860OpY5j8V-PU-24" value="&lt;span&gt;JWT&lt;/span&gt;" style="rounded=0;whiteSpace=wrap;html=1;fontSize=15;fillColor=#dae8fc;strokeColor=#6c8ebf;fontStyle=0;fontColor=#000000;" parent="HY1SN_5mMg5IJgrjzyaV-1" vertex="1">
                    &#xa;
                    <mxGeometry x="620" y="570" width="63" height="25" as="geometry"/>
                    &#xa;
                </mxCell>
                &#xa;
                <mxCell id="k2vZWX-860OpY5j8V-PU-27" value="User Collection" style="rounded=0;whiteSpace=wrap;html=1;fontSize=13;fontColor=#FFFFFF;" parent="HY1SN_5mMg5IJgrjzyaV-1" vertex="1">
                    &#xa;
                    <mxGeometry x="1275" y="375" width="200" height="35" as="geometry"/>
                    &#xa;
                </mxCell>
                &#xa;
                <mxCell id="k2vZWX-860OpY5j8V-PU-28" value="&lt;span style=&quot;font-size: 19px;&quot;&gt;MongoDB&lt;/span&gt;" style="rounded=0;whiteSpace=wrap;html=1;fontSize=13;fillColor=#e1d5e7;strokeColor=#9673a6;fontStyle=1;fontColor=#000000;" parent="HY1SN_5mMg5IJgrjzyaV-1" vertex="1">
                    &#xa;
                    <mxGeometry x="1260" y="340" width="230" height="35" as="geometry"/>
                    &#xa;
                </mxCell>
                &#xa;
            </root>
            &#xa;
        </mxGraphModel>
        &#xa;
    </diagram>
</mxfile>